<?xml version="1.0" standalone="no"?>
<!DOCTYPE svg PUBLIC "-//W3C//DTD SVG 20010904//EN"
 "http://www.w3.org/TR/2001/REC-SVG-20010904/DTD/svg10.dtd">
<svg version="1.0" xmlns="http://www.w3.org/2000/svg"
 width="754.000000pt" height="754.000000pt" viewBox="0 0 754.000000 754.000000"
 preserveAspectRatio="xMidYMid meet">
<metadata>
Created by potrace 1.14, written by Peter Selinger 2001-2017
</metadata>
<g transform="translate(0.000000,754.000000) scale(0.100000,-0.100000)"
fill="#000000" stroke="none">
<path d="M4199 7482 c-1 -4 -1 -11 0 -15 1 -5 -3 -6 -9 -2 -5 3 -13 -1 -16 -9
-3 -9 -10 -14 -14 -11 -4 2 -16 -6 -26 -20 -10 -13 -22 -21 -28 -18 -5 4 -7
-1 -3 -11 4 -11 3 -15 -4 -11 -6 4 -13 -3 -16 -15 -4 -16 -8 -18 -14 -8 -7 10
-9 9 -9 -3 0 -9 -7 -20 -16 -23 -8 -3 -12 -11 -9 -16 4 -6 1 -9 -7 -8 -7 2
-12 -1 -12 -7 1 -5 -9 -20 -22 -33 -13 -12 -24 -18 -24 -12 0 6 -4 8 -10 5 -5
-3 -10 -1 -10 5 0 6 -4 8 -10 5 -6 -4 -7 1 -3 11 5 13 3 15 -7 9 -10 -6 -12
-4 -7 8 6 15 -3 22 -25 18 -5 0 -8 4 -8 10 0 21 -28 38 -61 38 -58 0 -87 -4
-83 -11 7 -11 -48 -35 -73 -32 -13 1 -30 2 -39 3 -8 0 -12 6 -9 11 3 6 -3 10
-14 10 -12 0 -21 5 -21 11 0 5 -4 7 -10 4 -5 -3 -10 0 -10 7 -1 11 -23 -18
-25 -32 0 -3 -6 -15 -13 -27 -8 -15 -18 -20 -33 -16 -15 4 -20 3 -15 -5 4 -7
2 -12 -3 -12 -6 0 -11 6 -11 13 0 7 -3 8 -8 2 -4 -6 -19 -10 -34 -10 -15 1
-24 -3 -22 -7 3 -5 -8 -6 -25 -3 -19 3 -31 1 -31 -5 0 -6 -4 -8 -10 -5 -5 3
-10 1 -10 -6 0 -7 -3 -10 -6 -6 -3 3 -21 -9 -39 -28 -19 -18 -36 -30 -39 -27
-3 3 -6 0 -6 -7 0 -7 -4 -10 -9 -6 -5 3 -13 -4 -16 -16 -4 -11 -9 -18 -12 -15
-3 2 -15 -6 -28 -20 -16 -18 -25 -21 -28 -12 -4 9 -6 10 -6 1 -1 -7 -8 -10
-16 -7 -8 4 -15 1 -15 -6 0 -6 -4 -8 -10 -5 -5 3 -10 1 -10 -6 0 -8 -4 -8 -15
1 -11 9 -15 9 -15 1 0 -7 -4 -9 -10 -6 -5 3 -10 2 -10 -3 0 -5 -12 -7 -26 -4
-21 4 -25 2 -19 -9 7 -12 6 -12 -7 -1 -11 9 -18 10 -23 2 -3 -5 -15 -10 -26
-10 -10 0 -19 -5 -19 -11 0 -5 -4 -7 -10 -4 -5 3 -10 2 -10 -4 0 -6 -7 -8 -15
-5 -8 4 -17 -1 -21 -10 -3 -9 -12 -16 -20 -16 -8 0 -14 -8 -15 -17 0 -10 -3
-13 -5 -6 -3 7 -12 9 -20 6 -7 -3 -11 -10 -8 -15 4 -6 0 -6 -13 0 -20 11 -57
-3 -48 -18 3 -5 -4 -14 -15 -20 -11 -6 -18 -15 -15 -21 4 -5 1 -9 -5 -9 -6 0
-8 -4 -5 -10 3 -5 1 -10 -5 -10 -6 0 -8 -4 -5 -10 3 -5 0 -7 -8 -4 -9 3 -17
-3 -20 -16 -3 -12 -10 -19 -16 -15 -10 6 -16 -8 -12 -28 1 -5 -3 -6 -9 -2 -5
3 -10 1 -10 -5 0 -6 -4 -8 -10 -5 -9 5 -15 -16 -11 -38 1 -5 -2 -6 -6 -4 -8 5
-25 -10 -34 -28 -2 -5 -8 -9 -12 -7 -5 1 -6 -2 -2 -7 3 -6 -3 -19 -15 -31 -11
-11 -20 -17 -20 -13 0 10 -60 -49 -71 -70 -6 -10 -13 -39 -16 -64 -3 -26 -14
-63 -25 -82 -11 -19 -21 -52 -21 -72 -1 -21 -5 -41 -10 -45 -12 -12 -8 -26 6
-18 8 5 8 2 -2 -9 -10 -13 -10 -17 -1 -17 9 0 9 -4 -1 -17 -12 -15 -12 -16 1
-8 13 8 13 7 1 -9 -13 -15 -13 -19 0 -27 11 -7 11 -9 0 -9 -10 0 -11 -3 -2
-13 6 -8 8 -17 4 -21 -11 -11 -10 -46 1 -46 7 0 7 -3 1 -8 -15 -10 -17 -32 -3
-32 6 0 3 -9 -7 -20 -18 -20 -18 -21 1 -14 18 7 18 6 3 -12 -9 -10 -14 -24
-12 -31 2 -7 0 -21 -6 -32 -8 -14 -8 -21 2 -24 9 -4 9 -8 -2 -15 -8 -6 -11
-17 -8 -26 4 -9 3 -16 -2 -16 -5 0 -7 -12 -5 -27 1 -15 -2 -33 -8 -40 -8 -10
-7 -13 3 -13 12 0 12 -2 1 -9 -17 -11 -17 -21 0 -32 7 -5 8 -9 3 -9 -6 0 -11
-9 -12 -20 -1 -12 3 -18 9 -14 6 4 6 -1 -1 -14 -14 -27 -14 -35 2 -26 9 6 9 5
0 -7 -10 -12 -10 -18 0 -29 9 -10 9 -11 -1 -6 -7 5 -12 1 -12 -9 0 -10 -5 -13
-12 -9 -10 6 -10 4 -2 -7 21 -26 23 -58 6 -69 -11 -6 -13 -9 -4 -10 8 0 12 -9
11 -22 -2 -13 1 -29 5 -37 6 -10 5 -12 -2 -7 -7 4 -12 2 -12 -3 0 -6 6 -11 13
-11 8 0 7 -4 -3 -10 -13 -9 -13 -11 0 -20 12 -8 12 -10 1 -10 -11 0 -11 -3 0
-17 10 -11 10 -14 2 -9 -8 4 -13 1 -13 -9 0 -10 5 -13 12 -9 7 5 8 3 2 -7 -5
-8 -7 -36 -6 -62 2 -37 -1 -47 -10 -41 -10 6 -10 4 -2 -7 14 -20 17 -122 3
-113 -6 3 -3 -6 7 -22 11 -15 13 -25 7 -21 -9 5 -13 2 -13 -8 0 -9 3 -14 8
-12 4 3 7 -17 6 -44 -1 -34 2 -47 10 -42 7 4 6 1 -1 -8 -10 -12 -10 -18 0 -29
9 -10 9 -11 0 -6 -18 10 -16 1 3 -18 12 -12 12 -16 2 -16 -10 0 -9 -3 2 -10
12 -8 12 -10 1 -10 -11 0 -11 -3 -1 -15 7 -9 8 -15 2 -15 -5 0 -13 -7 -16 -16
-3 -8 -2 -12 4 -9 6 3 10 2 10 -2 0 -5 -16 -15 -35 -22 -23 -8 -33 -17 -28
-24 4 -7 -2 -5 -12 3 -11 9 -16 10 -11 3 6 -12 -5 -18 -26 -14 -5 0 -8 -6 -8
-14 0 -8 -5 -15 -11 -15 -5 0 -7 5 -3 12 5 7 3 8 -5 4 -7 -5 -10 -14 -7 -22 3
-9 0 -11 -11 -7 -10 4 -14 2 -9 -5 3 -6 2 -14 -4 -17 -8 -5 -7 -11 1 -21 9
-11 9 -14 -1 -14 -10 0 -10 -3 0 -15 10 -12 10 -15 -1 -15 -12 0 -12 -2 0 -9
10 -7 11 -13 1 -31 -7 -12 -7 -20 -2 -16 6 4 6 -6 -1 -24 -10 -25 -9 -33 3
-40 10 -7 11 -10 3 -10 -7 0 -13 -9 -13 -20 0 -11 6 -20 13 -20 8 0 7 -4 -3
-10 -8 -5 -10 -10 -5 -10 10 0 15 -23 18 -72 1 -9 5 -14 10 -11 4 2 5 -6 2
-20 -4 -14 -2 -28 4 -31 5 -4 7 -14 4 -23 -5 -12 -3 -14 8 -8 12 7 12 6 1 -7
-11 -14 -10 -19 8 -31 13 -9 17 -16 10 -19 -13 -4 6 -57 25 -70 5 -4 6 -8 1
-8 -5 0 -4 -6 1 -12 6 -7 9 -23 8 -35 -1 -12 2 -20 7 -17 4 3 8 -4 8 -16 0
-12 4 -19 8 -16 4 2 8 -3 9 -12 3 -38 11 -54 36 -78 15 -14 27 -29 27 -34 0
-9 19 -36 48 -65 6 -8 12 -20 12 -27 0 -10 3 -9 10 2 9 13 10 13 11 0 1 -8 1
-18 0 -22 0 -5 2 -7 7 -7 20 3 32 -2 32 -16 0 -8 5 -15 10 -15 21 0 26 -1 45
-14 30 -19 57 -27 50 -16 -3 6 -1 10 4 10 6 0 11 -6 11 -12 0 -9 4 -8 10 2 7
12 10 12 10 1 0 -8 6 -11 16 -7 10 4 21 -4 32 -24 9 -16 22 -30 27 -30 6 0 3
-5 -5 -10 -13 -8 -12 -10 4 -10 12 0 16 -5 12 -15 -3 -8 -1 -15 4 -15 6 0 10
-14 10 -30 0 -17 6 -33 14 -36 7 -3 12 -16 10 -32 -1 -15 1 -29 6 -32 5 -3 10
-20 12 -37 1 -17 6 -29 10 -27 8 5 11 -5 11 -38 0 -10 4 -15 8 -12 5 3 9 0 9
-7 0 -6 8 -18 18 -25 14 -11 14 -13 2 -14 -10 0 -11 -3 -3 -8 6 -4 13 -16 15
-27 1 -11 9 -25 16 -31 8 -5 15 -22 15 -36 1 -14 6 -24 10 -21 5 3 7 -11 5
-31 -2 -20 -7 -36 -12 -35 -5 0 -12 -4 -15 -9 -3 -6 -13 -12 -21 -14 -8 -2
-21 -10 -28 -18 -12 -13 -13 -13 -6 0 5 10 0 9 -14 -4 -12 -11 -22 -16 -22
-12 0 4 -6 1 -14 -6 -8 -7 -12 -16 -9 -20 2 -5 -1 -8 -8 -8 -9 0 -9 -3 0 -14
10 -11 8 -17 -6 -25 -10 -6 -14 -11 -9 -11 5 0 3 -7 -4 -15 -7 -8 -10 -21 -7
-29 3 -8 -1 -20 -9 -26 -8 -7 -14 -21 -14 -32 0 -10 -4 -17 -9 -13 -6 3 -8 -4
-6 -15 2 -11 0 -20 -5 -20 -5 0 -7 -9 -5 -20 2 -11 1 -20 -3 -20 -4 0 -12 -11
-19 -25 -8 -19 -8 -25 0 -25 7 0 4 -5 -6 -11 -9 -6 -15 -15 -11 -20 3 -5 1
-15 -4 -22 -6 -7 -11 -16 -12 -22 -1 -5 -6 -9 -11 -7 -6 1 -5 -7 1 -18 8 -16
8 -20 -2 -18 -8 2 -13 -6 -12 -19 1 -13 -3 -23 -8 -23 -6 0 -8 -7 -5 -14 4
-10 1 -13 -9 -9 -8 3 -14 -1 -14 -11 0 -8 -6 -13 -13 -10 -7 2 -24 -6 -37 -18
-14 -13 -28 -22 -33 -20 -4 1 -10 -5 -13 -13 -4 -8 -10 -15 -16 -15 -5 0 -16
-7 -25 -15 -8 -8 -20 -12 -26 -8 -7 4 -8 0 -4 -11 6 -14 3 -16 -14 -11 -12 4
-19 3 -17 -1 3 -5 -4 -18 -15 -29 -11 -11 -16 -13 -12 -5 7 11 4 11 -11 -2
-10 -9 -23 -17 -29 -18 -5 -1 -12 -4 -15 -7 -3 -4 1 -3 9 2 9 5 12 4 7 -3 -4
-7 -14 -12 -22 -12 -8 0 -17 -7 -20 -15 -4 -8 -9 -13 -14 -10 -4 2 -16 -5 -28
-15 -12 -11 -26 -20 -32 -20 -6 0 -8 -4 -5 -10 3 -5 -3 -10 -13 -10 -11 0 -23
-7 -26 -16 -3 -8 -10 -13 -15 -9 -6 3 -15 -4 -21 -15 -6 -11 -16 -19 -23 -17
-7 1 -11 -5 -11 -14 1 -11 -6 -15 -22 -13 -13 1 -22 -1 -20 -4 5 -10 -20 -32
-28 -25 -3 4 -6 1 -6 -6 0 -7 -4 -9 -10 -6 -5 3 -10 1 -10 -4 0 -6 -7 -11 -15
-11 -9 0 -18 -7 -21 -15 -4 -8 -11 -15 -16 -15 -6 0 -22 -12 -36 -27 -13 -16
-21 -21 -17 -13 3 8 -4 4 -17 -10 -13 -14 -31 -26 -39 -28 -20 -5 -32 -19 -36
-42 -1 -10 -3 -23 -4 -27 -4 -24 2 -53 10 -49 5 4 7 -4 3 -16 -4 -16 -2 -19 8
-13 10 6 11 4 4 -6 -13 -21 -14 -39 -1 -39 5 0 7 -3 4 -6 -3 -4 -2 -16 4 -27
8 -14 8 -18 0 -13 -12 8 -4 -21 11 -41 5 -7 5 -14 -2 -18 -8 -5 -6 -14 7 -28
13 -14 14 -18 3 -13 -9 4 -8 2 3 -7 9 -8 17 -24 17 -36 0 -12 4 -19 10 -16 6
3 10 -2 10 -11 0 -10 8 -26 17 -37 13 -15 14 -18 3 -12 -12 7 -13 6 -3 -7 7
-8 9 -19 5 -23 -4 -5 -1 -5 6 -1 7 4 12 1 12 -9 0 -9 4 -13 10 -10 6 3 7 -1 4
-9 -3 -9 -1 -16 6 -16 6 0 9 -4 6 -9 -8 -12 12 -18 57 -16 24 1 37 -3 38 -12
3 -30 4 -34 14 -41 6 -4 10 -14 10 -22 0 -8 3 -18 7 -21 4 -3 9 -17 10 -32 1
-15 6 -27 10 -27 4 0 8 -9 8 -20 0 -11 5 -20 11 -20 5 0 8 -4 5 -8 -3 -5 1
-20 9 -35 7 -14 11 -28 7 -31 -3 -3 0 -6 6 -6 6 0 9 -7 6 -15 -4 -9 3 -24 16
-35 15 -13 18 -20 9 -20 -12 0 -11 -2 1 -10 8 -5 11 -12 7 -16 -4 -4 1 -16 10
-27 13 -15 14 -18 3 -12 -9 5 -7 -1 5 -15 11 -13 14 -20 8 -16 -9 5 -11 2 -6
-11 14 -36 30 -63 35 -57 4 3 6 -1 5 -8 -1 -32 4 -49 13 -43 6 4 7 -1 3 -10
-3 -10 0 -21 8 -26 12 -7 12 -9 0 -9 -11 0 -9 -4 5 -14 10 -8 16 -18 11 -22
-4 -4 1 -16 10 -27 13 -15 14 -18 3 -12 -11 6 -10 3 2 -11 14 -16 15 -23 5
-33 -9 -10 -9 -12 3 -9 9 2 16 -6 18 -20 2 -12 7 -20 11 -18 4 3 8 -5 8 -16 1
-12 6 -24 10 -27 4 -3 10 -15 11 -26 2 -11 10 -27 18 -36 8 -9 11 -19 7 -22
-3 -4 -1 -7 6 -7 7 0 10 -4 6 -9 -3 -5 -1 -12 5 -16 6 -4 8 -11 5 -16 -4 -5
-1 -9 5 -9 6 0 8 -4 5 -10 -3 -5 -1 -10 5 -10 6 0 8 -4 5 -10 -3 -5 -1 -10 5
-10 6 0 8 -5 4 -12 -5 -8 -2 -9 9 -5 11 4 17 1 17 -9 0 -8 4 -13 9 -9 5 3 17
-2 25 -11 9 -8 16 -12 16 -7 0 4 7 -3 16 -15 8 -12 20 -20 25 -16 5 3 8 0 7
-8 -2 -7 3 -12 9 -10 7 1 13 -5 13 -14 0 -10 6 -14 14 -11 8 3 17 -1 20 -9 3
-9 11 -12 16 -9 6 4 9 3 8 -2 -2 -4 0 -8 4 -8 4 0 15 -10 23 -23 9 -12 21 -20
26 -17 5 4 9 -1 9 -10 0 -9 4 -14 9 -10 6 3 14 -3 20 -12 6 -10 11 -14 11 -9
0 6 7 1 16 -10 8 -10 13 -12 9 -4 -4 8 2 5 13 -8 11 -12 25 -22 31 -22 6 0 11
-4 11 -10 0 -5 6 -10 14 -10 8 0 17 -7 20 -16 4 -9 9 -14 13 -11 3 4 13 1 21
-6 13 -10 14 -9 7 3 -8 13 -7 13 8 1 10 -8 20 -11 24 -8 3 4 12 -1 20 -11 8
-9 11 -11 7 -3 -6 12 -3 11 15 -1 12 -9 30 -14 41 -11 10 3 21 0 25 -7 5 -8
11 -7 23 2 12 10 14 10 8 0 -8 -13 -6 -14 34 -16 14 -1 35 -8 48 -14 12 -7 22
-10 22 -6 0 3 7 1 15 -6 9 -7 18 -10 22 -6 3 3 17 -1 30 -9 15 -10 23 -12 23
-4 0 8 4 8 15 -1 8 -7 15 -9 15 -4 0 4 5 3 11 -3 6 -6 18 -9 25 -6 8 3 14 1
14 -4 0 -5 6 -10 13 -10 6 0 23 -3 36 -7 18 -6 22 -5 17 5 -4 8 -1 6 7 -4 11
-13 16 -15 19 -5 4 11 8 11 20 0 13 -10 17 -10 21 0 4 10 6 10 6 1 1 -7 6 -13
12 -13 5 0 7 4 4 10 -3 6 1 7 9 4 9 -3 14 -9 12 -13 -3 -4 8 -6 22 -5 15 1 33
-4 41 -10 11 -8 13 -8 7 1 -5 9 -1 13 13 13 11 0 23 -4 26 -10 3 -5 26 -7 51
-4 25 3 44 1 41 -3 -3 -5 7 -8 24 -7 16 1 29 -3 29 -8 0 -7 4 -7 13 -1 6 6 20
9 30 7 13 -2 17 2 13 12 -4 11 1 10 21 -3 15 -10 24 -12 19 -5 -5 9 1 11 28 6
26 -4 36 -2 36 8 0 8 3 9 8 3 11 -15 32 -17 48 -4 8 6 14 8 14 4 0 -4 8 -1 17
6 9 8 14 9 10 3 -4 -7 0 -14 8 -18 8 -3 17 -1 20 5 4 5 11 6 17 3 6 -4 14 0
19 7 7 12 9 12 9 0 0 -11 4 -10 16 5 8 10 13 14 10 7 -4 -7 1 -11 14 -10 11 1
20 5 20 9 0 5 11 6 25 4 14 -3 25 -1 25 3 0 5 11 7 25 6 14 -2 25 0 25 4 0 12
30 9 30 -3 0 -6 5 -3 11 8 9 15 13 16 20 5 7 -11 9 -9 9 6 0 11 4 16 8 10 10
-14 32 -17 32 -4 0 8 6 7 17 -2 15 -12 16 -12 10 5 -6 16 -5 17 7 7 11 -10 17
-8 25 6 7 12 10 13 11 4 0 -11 3 -11 15 -1 12 10 15 10 15 0 0 -7 9 -2 21 11
11 13 18 18 14 11 -8 -15 7 -16 23 0 7 7 12 8 12 4 0 -5 11 -1 25 8 18 12 25
13 25 4 0 -9 3 -9 9 1 9 14 28 21 64 24 9 1 17 5 17 9 0 4 11 8 24 8 13 0 29
7 36 15 7 8 19 15 28 15 8 0 21 8 29 18 10 11 12 12 8 2 -4 -8 1 -6 9 4 9 11
16 14 16 8 0 -10 3 -10 14 0 8 7 11 18 8 23 -3 6 1 4 10 -3 13 -10 17 -10 22
3 3 9 10 13 16 10 5 -3 10 -1 10 6 0 7 3 9 7 6 3 -4 13 2 21 14 8 11 25 24 39
30 13 5 21 13 18 19 -6 9 8 14 28 11 6 -1 11 14 8 31 0 4 7 4 16 1 10 -4 14
-2 10 4 -4 6 4 14 18 17 14 4 23 11 20 16 -3 5 4 11 15 15 11 4 18 11 15 16
-4 5 3 9 15 9 12 0 19 4 16 8 -3 5 6 15 20 22 13 8 22 20 20 27 -3 7 -2 12 2
12 19 -3 52 15 52 28 0 8 5 11 10 8 6 -3 10 -1 10 4 0 6 3 10 8 9 11 -4 51 39
44 47 -4 4 2 5 13 3 12 -2 19 2 17 10 -1 6 2 12 8 12 5 0 10 9 10 21 0 13 4
18 12 13 8 -5 9 -2 5 9 -4 10 0 20 11 26 9 6 13 11 8 11 -5 0 1 12 15 27 13
14 18 23 12 19 -9 -5 -11 -2 -7 8 3 9 11 13 17 9 6 -4 8 0 4 10 -3 10 -2 17 3
17 6 0 10 9 10 20 0 10 6 23 13 27 6 4 12 15 12 23 0 8 5 15 12 15 17 0 29 15
12 15 -11 1 -11 3 2 13 9 7 15 22 14 34 -1 13 3 19 10 16 7 -2 15 5 18 16 3
14 1 19 -6 14 -9 -5 -9 -3 0 8 6 8 10 31 9 52 -2 21 2 37 8 37 6 0 6 4 -2 12
-9 9 -8 16 6 32 9 11 12 16 5 13 -15 -9 -13 29 3 62 14 27 8 54 -10 44 -7 -4
-6 -1 2 9 14 18 12 68 -3 68 -5 0 -4 4 4 9 11 7 10 11 -5 20 -18 10 -18 10 1
11 16 0 17 2 6 9 -12 8 -12 12 -2 24 8 11 9 17 1 22 -8 5 -7 11 2 23 10 12 10
14 1 8 -15 -8 -15 0 -4 29 5 11 4 25 -1 32 -7 9 -6 13 3 13 11 0 11 2 0 9 -12
7 -12 13 -3 24 7 7 9 17 5 21 -12 12 -14 48 -2 40 8 -5 8 -1 0 13 -5 11 -11
39 -12 61 -2 23 -7 42 -12 42 -4 0 -5 5 -2 10 3 6 2 10 -2 10 -5 0 -8 18 -8
40 0 22 -3 40 -7 40 -4 0 -6 13 -4 30 2 18 -1 27 -7 23 -6 -4 -8 0 -5 9 4 8 2
21 -2 29 -5 8 -4 19 3 28 8 10 8 13 1 8 -7 -4 -11 3 -11 19 0 15 -7 30 -14 35
-8 5 -9 9 -4 9 6 0 3 5 -5 10 -13 8 -13 10 -1 10 12 0 11 3 -2 12 -9 7 -18 25
-19 41 -1 15 -6 27 -10 27 -4 0 -7 6 -5 13 1 6 -5 11 -13 9 -11 -3 -12 -1 -4
8 9 9 9 18 -2 38 -7 14 -10 30 -7 35 3 6 1 7 -5 3 -11 -6 -17 11 -13 36 0 4
-8 5 -18 3 -11 -2 -22 3 -25 11 -3 8 -12 14 -21 14 -8 0 -15 5 -15 11 0 5 -4
7 -10 4 -5 -3 -10 -2 -10 4 0 6 -7 8 -15 5 -9 -4 -18 1 -21 11 -5 13 -9 14
-15 3 -6 -10 -9 -8 -9 7 0 17 -2 17 -10 5 -8 -13 -10 -13 -10 2 0 12 -5 15
-17 11 -11 -4 -14 -3 -9 6 6 8 2 11 -10 9 -11 -2 -18 2 -17 9 2 7 -3 10 -11 7
-8 -3 -17 -1 -20 5 -4 6 -13 8 -22 4 -9 -3 -14 0 -12 8 2 9 -4 13 -17 11 -11
-2 -17 0 -12 4 7 8 -71 50 -85 46 -5 -1 -8 3 -8 9 0 5 -4 7 -10 4 -6 -3 -10
-1 -10 4 0 6 -7 11 -16 11 -8 0 -12 5 -8 11 4 8 0 8 -15 0 -17 -10 -20 -9 -15
4 4 10 2 13 -8 10 -8 -3 -21 1 -28 9 -7 9 -16 13 -21 10 -5 -3 -9 0 -9 5 0 6
-6 11 -14 11 -7 0 -20 8 -27 17 -10 11 -10 14 -1 9 6 -4 12 -2 12 3 0 6 -5 11
-11 11 -7 0 -4 11 6 26 9 15 12 24 6 20 -16 -11 15 44 35 60 11 9 12 12 4 8
-13 -7 -3 7 50 72 5 7 6 15 3 18 -4 3 -1 6 6 6 7 0 9 5 6 10 -3 6 -1 10 5 10
6 0 8 5 5 10 -3 6 1 10 9 10 10 0 13 7 11 20 -2 11 -1 19 3 16 9 -5 32 20 25
28 -4 3 2 6 13 6 16 0 17 2 4 10 -10 7 -11 10 -2 10 14 0 67 106 65 133 0 10
2 16 4 13 3 -3 11 1 18 7 10 9 10 15 1 26 -8 11 -8 13 0 8 7 -4 14 0 18 8 3 8
0 15 -6 15 -7 0 -3 7 8 16 10 8 12 12 4 8 -10 -5 -9 -1 4 14 10 12 16 28 13
37 -4 8 -2 15 2 15 5 0 12 7 15 16 4 10 2 13 -7 8 -6 -4 -5 1 4 12 9 10 14 24
12 31 -2 6 1 14 6 18 6 3 11 19 11 35 0 15 4 30 9 32 6 2 11 14 13 28 2 14 7
31 11 38 5 6 6 16 3 21 -4 5 -1 11 6 13 15 5 18 51 4 60 -7 5 -5 8 6 8 10 0
15 7 14 18 -2 9 0 19 4 22 5 3 9 23 11 45 1 22 7 46 12 53 6 8 5 12 -4 12 -11
1 -10 3 2 10 11 6 15 23 15 59 -1 27 2 47 6 45 3 -2 7 15 7 38 1 62 5 82 16
90 6 5 5 8 -4 8 -11 0 -11 3 -1 15 14 16 21 67 9 59 -5 -3 -9 0 -9 5 0 6 4 11
9 11 5 0 8 8 6 18 -1 9 3 23 9 31 8 11 8 15 -2 19 -10 3 -8 8 5 19 10 8 11 11
3 7 -12 -6 -13 -5 -2 7 7 8 17 15 22 15 6 1 15 2 20 3 6 0 9 4 9 9 -3 19 2 25
11 12 8 -13 10 -12 10 3 0 10 5 15 10 12 6 -3 10 -1 10 4 0 6 8 11 18 12 9 0
12 3 5 6 -10 3 -10 7 0 18 7 7 15 11 19 8 4 -2 5 4 1 13 -4 12 -3 15 5 10 7
-4 12 -2 12 4 0 6 5 8 13 4 8 -5 8 -2 -2 9 -9 12 -10 17 -2 17 7 0 9 5 6 10
-3 6 -1 10 5 10 6 0 8 5 5 10 -3 6 -2 10 4 10 6 0 18 14 27 31 11 23 12 29 2
23 -10 -6 -10 -4 1 9 7 9 10 17 5 17 -5 0 -3 4 5 9 8 5 14 27 15 50 1 29 5 41
16 41 12 0 12 2 1 9 -10 6 -10 10 -1 16 6 4 9 13 6 21 -3 8 -1 14 5 14 6 0 7
5 4 10 -3 6 0 10 7 10 9 0 9 3 -2 10 -12 7 -12 12 -2 22 16 16 16 31 0 22 -7
-4 -5 1 4 12 13 14 14 23 6 38 -8 15 -8 17 2 11 10 -6 12 -4 7 9 -4 9 -3 15 2
12 4 -3 14 6 21 19 17 31 17 101 1 97 -7 -1 -11 6 -9 15 2 10 -2 17 -9 15 -7
-1 -13 3 -13 9 0 5 -4 7 -10 4 -5 -3 -10 -2 -10 4 0 5 -11 8 -25 7 -13 -2 -24
0 -23 3 2 19 -4 22 -19 10 -11 -10 -14 -10 -9 -1 5 8 0 12 -16 12 -13 0 -30 4
-38 10 -9 6 -20 5 -29 -3 -12 -9 -13 -9 -7 1 4 7 1 12 -9 12 -9 0 -14 4 -10 9
3 5 1 13 -5 16 -8 5 -7 11 1 21 9 11 8 14 -2 14 -12 0 -12 2 0 9 7 5 10 14 7
20 -4 6 -2 11 4 11 7 0 10 7 7 15 -4 8 -1 17 5 21 7 4 6 9 -3 15 -11 7 -10 9
3 9 12 0 17 8 15 28 -1 17 2 26 11 24 10 -2 10 2 2 18 -8 15 -8 20 1 20 8 0 8
4 1 13 -7 8 -7 18 -2 27 6 9 4 20 -3 29 -9 11 -9 13 0 8 9 -6 10 2 6 29 -5 29
-3 35 7 29 9 -5 8 0 -3 15 -12 17 -13 28 -6 42 7 13 6 18 -3 19 -7 0 -4 4 7 9
11 5 14 9 7 9 -7 1 -11 5 -7 10 3 5 1 12 -5 16 -6 4 -7 12 0 24 6 12 5 22 -3
31 -9 10 -9 11 1 6 13 -8 17 10 3 18 -4 3 -6 17 -3 31 3 16 0 25 -8 25 -9 0
-9 4 -2 13 7 8 7 18 2 27 -5 8 -5 21 0 30 5 9 5 22 0 30 -5 8 -4 22 1 32 5 10
6 18 2 18 -4 0 -9 37 -10 82 -1 45 -6 84 -10 87 -4 3 -10 22 -11 41 -2 19 -8
40 -13 46 -5 6 -4 15 3 22 9 9 9 12 0 12 -6 0 -9 7 -5 17 4 10 2 14 -5 9 -6
-3 -13 3 -17 14 -3 11 -11 20 -16 20 -6 0 -7 5 -4 10 3 6 0 12 -7 15 -8 3 -15
15 -15 27 -1 12 -8 25 -15 29 -11 7 -11 9 0 9 10 0 10 4 -2 16 -17 17 -21 28
-7 20 5 -3 11 1 15 9 3 8 0 15 -6 15 -7 0 -7 4 0 13 5 7 6 21 1 32 -4 11 -8
44 -8 73 -1 34 -5 52 -13 53 -7 0 -4 4 7 9 11 5 15 9 8 9 -6 1 -9 9 -6 20 3
10 0 22 -7 26 -8 5 -8 10 0 20 8 10 8 15 -1 21 -8 5 -9 3 -4 -6 5 -8 4 -11 -3
-6 -6 4 -9 12 -6 19 5 15 -41 59 -52 49 -4 -4 -4 -1 0 6 4 7 1 15 -8 18 -9 3
-16 12 -16 20 0 8 -6 13 -12 11 -7 -1 -12 4 -11 11 2 6 -2 12 -8 12 -5 0 -8 4
-5 9 4 5 0 12 -6 14 -10 4 -10 6 0 6 8 1 6 7 -5 19 -10 11 -21 17 -25 15 -4
-2 -5 4 -1 13 4 11 3 15 -5 10 -6 -3 -13 3 -17 15 -4 11 -9 18 -12 15 -8 -8
-53 46 -47 56 3 4 -2 8 -10 8 -9 0 -16 7 -16 16 0 8 -3 13 -7 11 -10 -6 -53
39 -46 47 4 3 -1 6 -10 6 -10 0 -17 6 -17 14 0 8 -7 17 -16 20 -10 4 -13 2 -8
-7 4 -6 -11 6 -34 28 -85 84 -112 106 -131 108 -12 1 -17 6 -13 16 3 9 1 12
-6 7 -7 -4 -12 -1 -12 9 0 9 -4 14 -8 11 -5 -3 -17 6 -27 20 -12 17 -21 21
-26 13 -7 -12 -60 12 -89 41 -42 42 -58 51 -66 39 -5 -8 -3 -10 6 -4 9 6 11 4
6 -4 -6 -9 -16 -3 -35 18 -15 17 -31 28 -34 24 -4 -3 -7 1 -7 10 0 10 -5 17
-11 17 -5 0 -7 4 -4 10 3 5 0 7 -9 4 -8 -3 -22 3 -32 15 -10 11 -21 18 -26 15
-4 -3 -8 -1 -8 5 0 19 -98 60 -101 43z m1135 -2670 c12 -2 15 1 11 8 -6 9 -2
9 13 1 24 -13 35 -14 28 -3 -2 4 4 8 14 8 10 0 16 -4 14 -8 -3 -4 -1 -8 4 -8
6 0 12 -7 15 -14 4 -11 1 -13 -10 -9 -13 5 -14 3 -4 -15 7 -12 9 -22 5 -22 -3
0 0 -8 7 -17 8 -9 9 -14 3 -10 -7 4 -18 -1 -25 -10 -10 -12 -10 -14 -1 -9 8 5
12 0 12 -14 0 -12 -3 -19 -8 -16 -4 2 -6 -13 -5 -35 1 -28 -1 -38 -10 -32 -7
4 -6 0 2 -10 11 -14 11 -17 0 -18 -12 0 -12 -1 0 -6 9 -4 10 -8 2 -12 -6 -4
-12 -22 -14 -41 -3 -19 -9 -36 -15 -38 -6 -2 -8 -10 -5 -18 3 -8 0 -14 -7 -14
-6 0 -10 -6 -7 -12 2 -7 -3 -19 -12 -26 -13 -11 -13 -12 -1 -7 8 4 6 -1 -5
-10 -11 -9 -19 -21 -17 -26 1 -5 -3 -9 -9 -9 -5 0 -7 -5 -3 -12 4 -7 3 -8 -5
-4 -6 4 -9 12 -6 17 4 5 -1 9 -11 9 -13 0 -14 3 -5 14 9 11 9 16 0 21 -8 6 -7
10 2 16 11 7 11 9 1 9 -8 0 -10 5 -6 12 14 22 11 48 -5 49 -9 0 -11 3 -5 5 7
3 10 13 8 22 -10 44 -10 112 0 112 6 0 5 5 -2 12 -15 15 -16 32 -1 22 8 -4 8
0 0 15 -9 16 -9 21 1 21 9 0 9 3 -2 11 -11 8 -12 12 -2 16 6 2 9 10 5 16 -11
19 -11 47 1 47 6 0 4 5 -4 10 -13 9 -13 10 0 11 8 1 18 1 23 0 4 0 7 5 7 12 0
7 3 8 8 2 4 -5 15 -11 26 -13z m-3013 -769 c13 -16 12 -17 -3 -4 -10 7 -18 15
-18 17 0 8 8 3 21 -13z"/>
</g>
</svg>
